<svg width="30" height="30" viewBox="0 0 30 30" fill="none" xmlns="http://www.w3.org/2000/svg">
<path d="M14.992 0.833008C12.1901 0.833008 9.45107 1.66387 7.12137 3.22052C4.79168 4.77717 2.9759 6.98971 1.90366 9.57833C0.831417 12.1669 0.55087 15.0154 1.09749 17.7635C1.64412 20.5115 2.99336 23.0358 4.97461 25.017C6.95585 26.9983 9.48011 28.3475 12.2282 28.8941C14.9762 29.4408 17.8247 29.1602 20.4133 28.088C23.0019 27.0157 25.2145 25.1999 26.7711 22.8703C28.3278 20.5406 29.1586 17.8016 29.1586 14.9997C29.1588 13.1392 28.7924 11.297 28.0806 9.57814C27.3687 7.85929 26.3252 6.29751 25.0096 4.98198C23.6941 3.66646 22.1323 2.62295 20.4135 1.91107C18.6946 1.19918 16.8524 0.832853 14.992 0.833008ZM19.4963 22.299C19.4432 22.4312 19.3626 22.5506 19.2596 22.6491C19.1567 22.7476 19.0339 22.8229 18.8995 22.8701C18.7651 22.9172 18.6221 22.9351 18.4802 22.9225C18.3383 22.9099 18.2008 22.8671 18.0768 22.797L14.231 19.8087L11.7627 22.0858C11.7054 22.1282 11.6384 22.1554 11.5679 22.165C11.4973 22.1747 11.4255 22.1664 11.3589 22.141L11.8321 17.9074L11.8473 17.9194L11.8569 17.8358C11.8569 17.8358 18.7773 11.5351 19.0593 11.2667C19.3447 10.999 19.2505 10.9409 19.2505 10.9409C19.2668 10.6143 18.7384 10.9409 18.7384 10.9409L9.56895 16.8399L5.75034 15.5394C5.75034 15.5394 5.16384 15.329 5.10859 14.8665C5.05051 14.4075 5.76945 14.1582 5.76945 14.1582L20.9519 8.1267C20.9519 8.1267 22.2 7.57063 22.2 8.49151L19.4963 22.299Z" fill="#84FF0A"/>
</svg>
