<svg width="30" height="30" viewBox="0 0 30 30" fill="none" xmlns="http://www.w3.org/2000/svg">
<path d="M19.3533 0.833008H10.6615C2.72219 0.833008 0.833333 2.72186 0.833333 10.6463V19.3382C0.833333 27.2774 2.7075 29.1663 10.6467 29.1663H19.3385C27.2778 29.1663 29.1667 27.2922 29.1667 19.3529V10.6611C29.1667 2.72186 27.2925 0.833008 19.3533 0.833008ZM23.7066 21.05H21.6406C20.8585 21.05 20.6224 20.4154 19.2205 19.0135C17.9956 17.833 17.4792 17.6854 17.1693 17.6854C16.7414 17.6854 16.6232 17.8034 16.6232 18.3937V20.2531C16.6232 20.7549 16.4609 21.05 15.1476 21.05C13.8732 20.9644 12.6373 20.5772 11.5417 19.9204C10.4462 19.2636 9.5224 18.3559 8.84635 17.2722C7.24142 15.2746 6.12473 12.93 5.5851 10.425C5.5851 10.1151 5.70313 9.83469 6.29344 9.83469H8.35938C8.89063 9.83469 9.0825 10.0708 9.28906 10.6169C10.2925 13.5682 12.0044 16.1359 12.6979 16.1359C12.9635 16.1359 13.0816 16.0179 13.0816 15.3538V12.3139C12.993 10.9268 12.2552 10.8087 12.2552 10.307C12.2649 10.1746 12.3258 10.0512 12.425 9.96306C12.5242 9.87489 12.6539 9.82884 12.7865 9.83469H16.033C16.4757 9.83469 16.6232 10.056 16.6232 10.5873V14.6898C16.6232 15.1325 16.8151 15.28 16.9479 15.28C17.2135 15.28 17.4201 15.1325 17.9071 14.6455C18.9536 13.3693 19.8086 11.9476 20.4453 10.425C20.5103 10.2418 20.6335 10.0849 20.796 9.97829C20.9586 9.8717 21.1516 9.82126 21.3455 9.83469H23.4115C24.0313 9.83469 24.1641 10.1446 24.0313 10.5873C23.2795 12.2707 22.3494 13.8687 21.257 15.3538C21.0356 15.6932 20.9471 15.8703 21.257 16.2687C21.4635 16.5786 22.1867 17.1837 22.6736 17.7592C23.382 18.4657 23.9701 19.2832 24.4149 20.1794C24.592 20.7549 24.2969 21.05 23.7066 21.05Z" fill="#9124FF"/>
</svg>
