<?xml version="1.0" standalone="no"?>
<!DOCTYPE svg PUBLIC "-//W3C//DTD SVG 20010904//EN"
 "http://www.w3.org/TR/2001/REC-SVG-20010904/DTD/svg10.dtd">
<svg version="1.0" xmlns="http://www.w3.org/2000/svg"
 width="1280.000000pt" height="1113.000000pt" viewBox="0 0 1280.000000 1113.000000"
 preserveAspectRatio="xMidYMid meet">
<g transform="translate(0.000000,1113.000000) scale(0.100000,-0.100000)"
fill="#000000" stroke="none">
<path d="M2044 11101 c-230 -89 -426 -272 -450 -421 -7 -40 -8 -42 -38 -36
-223 41 -374 -4 -483 -144 -25 -33 -49 -57 -53 -55 -5 3 -22 30 -39 60 -62
110 -211 188 -362 189 -94 1 -114 -11 -104 -63 16 -86 87 -176 189 -240 46
-29 120 -57 211 -80 l40 -11 1 -117 c0 -107 3 -126 31 -200 17 -45 65 -142
107 -216 42 -73 76 -137 76 -143 0 -5 -39 -9 -87 -9 -105 0 -159 -21 -223 -85
-52 -52 -80 -115 -87 -190 -7 -70 1 -75 84 -54 171 44 268 87 330 147 53 51
64 44 71 -51 7 -101 -1 -127 -66 -218 -32 -44 -77 -116 -100 -160 -23 -43 -50
-88 -59 -100 -30 -35 -93 -78 -102 -68 -4 5 -23 56 -40 114 -44 141 -117 302
-169 372 -60 82 -102 111 -168 116 -50 4 -56 2 -87 -29 -56 -56 -58 -156 -7
-305 52 -151 178 -305 278 -340 57 -20 65 -39 32 -69 -33 -30 -62 -123 -67
-215 -6 -109 11 -184 82 -352 74 -174 89 -233 89 -348 -1 -95 -17 -180 -34
-180 -5 0 -18 21 -30 47 -32 72 -65 109 -115 128 -52 20 -128 17 -188 -9 -31
-12 -37 -20 -37 -44 0 -114 138 -235 302 -267 38 -7 70 -15 72 -16 3 -5 26
-322 33 -454 4 -89 0 -122 -37 -305 -23 -112 -43 -206 -45 -209 -2 -2 -24 2
-49 8 -60 15 -103 14 -164 -4 -63 -19 -109 -57 -133 -109 -31 -69 8 -106 110
-106 57 0 116 27 170 75 22 21 47 35 54 32 8 -3 17 -26 20 -51 4 -26 16 -68
27 -94 19 -46 19 -48 1 -111 -10 -36 -22 -66 -27 -68 -6 -2 -25 17 -44 42 -75
101 -210 150 -304 111 -70 -29 -73 -116 -8 -251 47 -97 50 -94 -68 -69 -166
35 -306 -24 -361 -153 -24 -57 -24 -64 7 -128 49 -104 161 -172 319 -194 43
-6 81 -14 84 -16 2 -3 -5 -18 -17 -33 -32 -40 -68 -112 -76 -151 -21 -110 89
-208 205 -182 24 5 46 8 50 5 4 -2 5 -39 2 -82 -14 -195 78 -358 396 -707 44
-48 78 -92 75 -97 -4 -6 -28 -7 -58 -4 -151 19 -399 -67 -480 -167 -55 -68
-28 -145 58 -168 63 -17 226 -5 327 25 115 34 183 65 243 111 37 28 53 35 65
28 9 -5 34 -45 56 -88 36 -69 40 -87 44 -161 3 -76 0 -90 -27 -146 -36 -78
-93 -136 -258 -265 -71 -55 -140 -112 -153 -127 -14 -14 -30 -26 -36 -26 -6 0
-24 33 -39 73 -65 167 -189 314 -303 357 -47 18 -72 21 -131 17 -97 -6 -111
-19 -94 -84 20 -78 85 -203 141 -273 91 -114 198 -181 318 -198 47 -7 48 -8
45 -42 -10 -141 -4 -258 16 -320 12 -36 22 -84 22 -108 0 -54 19 -91 63 -125
25 -19 45 -50 68 -104 28 -67 33 -90 34 -160 0 -107 -5 -112 -92 -86 -107 32
-131 10 -120 -107 10 -119 91 -236 199 -291 32 -16 58 -31 58 -34 0 -2 -13
-25 -29 -50 -16 -25 -37 -75 -47 -112 -15 -56 -16 -75 -6 -134 14 -84 45 -153
106 -242 25 -37 46 -71 46 -75 0 -4 -44 -7 -97 -7 -89 0 -104 -3 -163 -31
-120 -58 -202 -155 -216 -258 -8 -59 9 -81 77 -95 69 -15 116 -14 179 5 42 12
67 29 119 82 37 37 88 95 114 130 29 38 54 62 66 62 27 0 99 -112 107 -168 10
-64 -10 -166 -47 -242 -39 -78 -168 -211 -246 -253 -51 -27 -201 -57 -288 -57
-23 0 -45 -4 -50 -9 -6 -5 -21 -11 -35 -13 -20 -2 -25 -9 -25 -33 l0 -30 75
-3 c41 -2 100 2 131 8 97 18 314 95 376 133 80 49 163 139 262 284 88 129 184
243 205 243 8 0 21 -21 31 -47 26 -69 55 -112 114 -166 134 -125 369 -165 371
-63 0 37 -70 165 -118 214 -59 61 -108 92 -190 122 -34 12 -62 28 -62 35 0 24
152 76 409 141 141 36 292 77 336 91 84 27 229 95 240 113 16 26 41 7 69 -53
61 -131 240 -269 402 -311 63 -16 149 -21 178 -10 25 10 19 46 -19 104 -41 66
-44 87 -10 96 67 17 178 -31 288 -124 29 -24 121 -112 206 -195 153 -152 153
-152 141 -182 -7 -16 -21 -56 -31 -88 -56 -173 -20 -385 78 -452 47 -31 54
-31 103 0 116 73 141 323 48 484 -10 19 -15 38 -11 42 4 4 40 14 78 22 142 30
293 123 371 230 47 63 59 98 78 217 l12 75 31 -1 c46 -2 116 -56 167 -127 24
-34 85 -145 136 -247 118 -236 179 -329 284 -427 177 -165 380 -251 617 -260
106 -4 139 -2 210 16 133 33 220 82 321 181 143 141 168 217 168 515 0 94 5
187 10 207 7 24 27 52 57 78 59 51 152 105 163 94 4 -5 4 -36 -2 -69 -14 -81
-3 -253 22 -350 44 -178 154 -342 259 -389 57 -26 71 -16 95 70 17 57 20 102
20 257 1 180 2 188 21 192 11 2 67 6 125 10 136 7 268 35 353 73 43 20 67 26
68 19 1 -7 0 -37 -1 -67 -1 -31 4 -85 10 -120 28 -156 122 -248 291 -287 66
-15 71 -14 91 3 19 17 20 27 15 114 -12 228 -95 401 -242 505 -60 43 -74 65
-75 110 -1 52 -53 130 -160 240 -124 127 -162 192 -180 309 -12 78 -6 154 22
278 17 76 25 94 63 136 24 27 69 68 99 91 53 41 76 46 76 16 0 -28 77 -95 145
-127 58 -26 85 -33 157 -36 106 -5 138 9 138 61 0 43 -50 126 -102 171 -45 39
-135 86 -165 86 -10 0 -25 5 -33 10 -13 8 -13 14 -1 42 7 18 21 52 30 76 17
46 38 53 65 23 28 -31 116 -64 171 -65 72 -1 110 18 135 68 24 51 25 94 4 165
-8 29 -12 56 -9 59 4 4 47 10 96 13 160 11 286 94 304 198 19 115 -79 211
-217 211 -42 0 -43 2 -27 49 15 44 -2 103 -39 131 -27 22 -77 24 -141 4 -22
-7 -23 -5 -16 22 4 16 9 54 12 85 4 50 2 59 -23 89 -54 63 -178 99 -237 69
-12 -6 -36 -24 -52 -40 l-30 -28 -44 30 c-91 61 -178 63 -254 6 -62 -47 -92
-114 -91 -202 1 -40 8 -90 18 -115 27 -71 27 -72 -38 -87 -66 -15 -118 -49
-141 -93 -20 -40 -19 -125 2 -161 24 -40 87 -69 151 -69 28 0 53 -4 56 -9 3
-5 -10 -35 -29 -67 -28 -46 -35 -68 -35 -109 0 -89 75 -165 162 -165 38 0 108
30 155 66 42 32 47 31 41 -14 -13 -96 -81 -185 -239 -313 -118 -95 -153 -144
-179 -244 -11 -42 -22 -80 -24 -84 -3 -4 -29 0 -58 10 -107 37 -279 18 -415
-47 -66 -32 -73 -37 -73 -64 0 -23 8 -35 38 -53 48 -31 159 -79 247 -108 72
-24 189 -32 232 -16 19 7 25 4 34 -20 53 -132 83 -177 186 -281 110 -112 138
-154 149 -220 18 -112 -69 -194 -251 -235 -104 -24 -342 -42 -359 -28 -8 7
-24 39 -36 72 -28 74 -85 164 -145 228 l-45 48 16 39 c21 51 21 180 -1 264
-33 127 -65 173 -234 340 -87 85 -170 175 -184 200 -23 41 -57 145 -57 177 0
24 19 13 36 -20 44 -87 101 -112 178 -79 83 37 111 125 82 261 -9 41 -13 77
-11 80 3 2 37 -3 75 -13 76 -20 127 -17 166 9 36 23 64 87 64 146 0 45 -4 55
-34 85 -19 19 -48 37 -65 40 -17 4 -34 10 -36 14 -3 5 4 28 15 51 25 56 25 80
0 129 -31 62 -73 85 -151 85 -57 0 -73 -4 -120 -33 -60 -38 -60 -38 -101 36
-27 50 -94 92 -145 92 -95 0 -147 -78 -141 -208 l3 -75 -80 -1 c-92 -1 -135
-20 -173 -77 -19 -27 -23 -43 -19 -77 7 -67 61 -114 146 -128 23 -4 44 -10 46
-14 3 -5 -6 -32 -20 -62 -46 -99 -28 -192 47 -239 33 -20 92 -22 145 -4 19 6
23 3 28 -21 3 -16 13 -53 21 -82 9 -30 13 -56 10 -59 -3 -3 -51 -7 -108 -8
-164 -4 -294 -61 -416 -183 -91 -90 -92 -105 -7 -147 52 -26 71 -30 141 -30
75 0 87 3 165 42 46 23 129 78 184 122 55 44 105 81 112 81 6 0 49 -35 95 -77
218 -204 254 -253 283 -393 39 -186 10 -243 -181 -350 -114 -64 -187 -131
-204 -186 -7 -21 -15 -112 -17 -201 -3 -104 -9 -163 -16 -163 -5 0 -37 27 -70
61 -200 201 -427 263 -453 123 -19 -104 200 -332 399 -414 32 -13 57 -29 57
-35 0 -18 -56 -79 -112 -122 -120 -94 -246 -135 -408 -136 -224 -2 -449 93
-616 258 -90 88 -144 172 -243 377 -140 287 -219 386 -343 427 -47 15 -48 34
-9 89 39 53 109 105 196 146 81 39 203 78 216 70 5 -3 9 -35 9 -72 0 -37 5
-85 11 -107 14 -51 64 -100 117 -116 38 -11 48 -10 90 7 54 22 106 84 122 144
12 46 17 47 62 20 19 -11 51 -20 74 -20 90 0 144 120 95 214 -11 21 -18 43
-15 48 3 4 22 15 42 24 87 36 118 108 71 168 -30 38 -56 49 -133 55 l-69 6 -1
67 c-1 51 -6 73 -22 94 -33 45 -70 67 -122 72 -44 4 -52 1 -85 -27 -20 -18
-41 -49 -48 -69 -6 -20 -15 -41 -19 -45 -3 -4 -33 -1 -66 8 -92 24 -171 0
-234 -71 -83 -95 -80 -206 8 -296 40 -42 38 -49 -23 -68 -150 -46 -317 -167
-357 -258 -11 -24 -24 -42 -30 -40 -6 2 -23 37 -38 78 -88 243 -189 335 -291
267 -88 -58 -102 -182 -35 -322 47 -99 130 -184 211 -214 30 -12 66 -21 79
-21 40 0 48 -21 29 -76 -12 -36 -34 -67 -87 -119 -111 -110 -239 -165 -383
-165 -86 0 -71 -11 -313 225 -91 88 -191 178 -223 198 -121 80 -206 102 -282
72 l-45 -17 -98 93 c-106 101 -109 107 -72 180 47 92 127 127 330 148 75 8
119 18 155 36 l50 24 58 -64 c77 -85 182 -140 252 -132 54 6 89 34 105 84 16
46 5 84 -33 120 -52 50 -123 76 -259 98 -43 7 -46 16 -27 91 12 46 27 55 50
28 37 -45 122 -57 176 -24 62 37 76 86 61 209 -3 20 4 26 39 38 93 31 121 121
64 200 -27 37 -59 55 -140 79 -8 3 -10 11 -7 21 19 47 18 101 -2 146 -22 49
-53 75 -106 87 -80 18 -143 -29 -174 -132 -11 -34 -25 -64 -31 -66 -6 -2 -29
12 -51 32 -48 43 -111 76 -146 76 -76 0 -129 -81 -129 -197 0 -68 2 -74 34
-107 18 -19 47 -40 62 -47 35 -14 36 -26 8 -79 -50 -95 -28 -179 51 -200 40
-11 75 -7 159 16 24 7 24 6 18 -48 -11 -112 -79 -197 -169 -213 -21 -4 -38 -6
-39 -4 0 2 -3 32 -5 67 -9 112 -53 203 -131 271 -53 47 -86 59 -109 40 -14
-11 -16 -29 -12 -100 6 -91 31 -163 84 -241 14 -20 23 -41 20 -46 -3 -5 -22
-13 -43 -17 -97 -18 -196 -99 -235 -192 -12 -29 -25 -53 -30 -53 -4 0 -37 10
-74 22 -62 20 -65 23 -60 47 26 120 29 162 18 233 -15 94 -43 180 -98 297 -25
53 -41 98 -36 103 5 5 28 4 53 -1 90 -21 186 -9 242 31 15 11 37 38 48 61 18
35 21 54 17 131 -5 96 -21 142 -76 214 -34 45 -118 92 -162 92 -49 0 -60 15
-60 80 0 71 -21 143 -59 200 -79 120 -204 111 -274 -18 -22 -41 -56 -156 -57
-194 0 -5 -25 -8 -55 -8 -31 0 -68 -6 -83 -14 -37 -19 -89 -75 -101 -109 -18
-47 -13 -128 9 -165 11 -18 20 -36 20 -41 0 -4 -16 -25 -35 -45 -62 -66 -70
-153 -20 -228 34 -51 82 -72 146 -63 l49 7 0 -64 c0 -133 82 -194 212 -158 54
15 98 57 125 120 23 50 26 53 38 36 19 -26 75 -181 86 -240 34 -179 -24 -309
-174 -394 -56 -33 -217 -92 -247 -92 -20 0 -23 11 -36 125 -21 201 -134 420
-272 529 -146 116 -350 179 -420 130 -78 -54 -66 -200 31 -389 30 -58 63 -101
117 -155 90 -89 151 -127 313 -193 67 -27 128 -55 136 -63 18 -17 27 -13 -159
-58 -80 -20 -172 -45 -204 -56 -78 -27 -96 -26 -96 3 0 28 -44 91 -88 129 -18
15 -58 36 -89 48 -49 19 -72 21 -150 17 -79 -4 -102 -9 -165 -39 -40 -20 -95
-56 -122 -82 -57 -55 -53 -56 -131 58 -94 139 -116 240 -74 352 27 71 83 129
175 179 224 123 292 165 349 218 85 77 118 144 120 241 1 39 3 74 3 79 1 4 21
-2 44 -14 82 -42 176 -25 232 41 21 26 26 42 26 86 0 70 -28 130 -97 204 -29
32 -53 63 -53 69 0 6 18 20 39 31 78 39 108 110 75 176 -25 50 -60 74 -120 82
-40 6 -49 11 -49 27 0 14 22 32 83 65 119 65 204 131 256 201 78 104 134 240
143 347 3 34 10 65 14 68 5 2 34 -3 65 -12 98 -28 181 -5 277 78 80 68 84 137
12 184 -41 27 -159 20 -266 -16 -50 -17 -101 -37 -112 -45 -12 -8 -27 -15 -34
-15 -17 0 -88 125 -107 189 -35 119 -13 209 108 442 114 219 138 306 116 415
-11 53 -11 59 6 71 67 47 91 102 74 165 -10 33 -49 76 -111 119 l-23 16 29 37
c22 29 30 52 33 95 4 51 1 60 -24 90 -57 68 -144 80 -230 31 l-52 -29 -27 24
c-90 84 -218 76 -286 -18 -43 -59 -36 -144 15 -186 22 -19 14 -27 -73 -71
-155 -77 -182 -158 -87 -258 64 -69 147 -87 236 -53 30 12 56 21 57 21 2 0 9
-15 16 -32 33 -77 114 -121 185 -100 47 14 99 67 117 118 17 51 37 53 59 7 27
-57 32 -139 11 -209 -16 -54 -181 -394 -192 -394 -3 0 -30 23 -61 50 -107 95
-198 121 -303 85 -46 -16 -135 -78 -153 -107 -15 -25 24 -63 109 -103 95 -45
163 -60 271 -59 l91 1 6 -79 c7 -91 33 -160 105 -286 80 -140 86 -212 28 -366
-37 -98 -88 -176 -154 -238 -62 -56 -175 -128 -203 -128 -10 0 -26 18 -39 46
-28 56 -80 93 -146 100 -41 5 -55 2 -84 -18 -19 -13 -45 -39 -58 -58 -13 -19
-27 -36 -31 -38 -5 -2 -35 24 -67 56 -69 69 -133 98 -191 87 -48 -9 -107 -67
-122 -120 -16 -57 -14 -151 5 -215 29 -105 32 -95 -29 -109 -30 -6 -80 -27
-110 -45 -76 -46 -82 -38 -81 113 0 192 31 242 238 399 146 110 230 197 267
276 17 36 36 66 42 66 7 0 26 -22 43 -48 53 -81 142 -178 197 -215 66 -45 106
-53 147 -32 76 39 92 138 39 243 -85 170 -254 262 -384 208 -40 -17 -39 -18
-65 66 -37 119 -85 185 -338 465 -230 255 -328 397 -362 523 -24 90 -9 207 32
257 17 21 28 -2 28 -62 0 -27 6 -75 14 -106 27 -116 81 -169 173 -169 70 0
114 23 181 94 96 102 148 250 139 399 l-5 89 37 -9 c20 -4 79 -8 131 -8 86 0
99 3 143 28 54 32 104 94 113 142 22 121 -118 243 -307 269 -44 6 -79 15 -79
21 0 5 15 31 34 58 65 91 81 141 81 253 0 95 -2 103 -30 150 -47 74 -106 107
-208 112 -93 5 -148 -7 -201 -43 -45 -31 -52 -31 -68 -2 -23 42 -13 181 27
372 43 207 47 283 26 530 -19 226 -14 303 27 390 75 158 154 222 263 212 105
-9 225 -81 266 -160 20 -40 6 -51 -40 -32 -49 20 -125 19 -166 -3 -67 -36 -86
-112 -54 -211 l16 -52 -37 -30 c-49 -41 -68 -81 -69 -148 0 -84 48 -163 126
-203 31 -16 54 -19 99 -16 l59 4 24 -46 c29 -56 71 -80 143 -80 34 0 59 7 83
23 43 29 79 82 79 116 0 34 17 51 49 51 37 0 87 34 107 72 23 43 23 142 1 185
-9 17 -30 42 -47 55 l-31 24 20 45 c38 83 22 158 -42 198 -49 30 -103 27 -171
-8 -30 -17 -58 -27 -60 -23 -4 7 -9 58 -7 79 1 8 34 10 119 6 133 -6 255 11
381 53 106 35 151 66 151 104 0 23 -9 35 -45 60 -119 82 -278 121 -410 100
-96 -15 -181 -58 -244 -125 -29 -30 -55 -55 -58 -55 -3 0 -37 16 -77 35 -163
80 -284 68 -384 -39 -24 -26 -48 -44 -53 -41 -5 4 -9 39 -9 78 0 99 -20 176
-89 341 -73 173 -83 212 -83 302 0 87 23 172 59 215 15 18 70 60 123 94 109
70 147 110 191 198 39 77 89 156 123 194 14 15 42 49 61 75 59 79 226 211 239
190 2 -4 -22 -41 -55 -82 -124 -154 -181 -323 -160 -467 14 -94 48 -181 82
-205 38 -29 94 -11 147 46 107 116 172 342 178 619 2 93 7 173 10 179 11 18
134 3 189 -23 95 -45 212 -193 230 -292 9 -45 -14 -295 -27 -303 -5 -4 -25 13
-45 35 -60 70 -124 89 -183 54 -65 -38 -78 -141 -31 -243 32 -69 31 -70 -55
-70 -73 0 -77 -1 -110 -34 -28 -28 -34 -41 -34 -77 0 -61 30 -105 88 -132 76
-36 75 -33 42 -79 -56 -77 -30 -196 56 -248 41 -26 98 -23 141 7 14 10 32 23
40 28 11 8 19 4 31 -15 9 -14 31 -40 48 -57 83 -86 221 -3 242 144 7 46 7 47
57 58 149 34 245 138 245 263 0 50 -3 58 -38 92 -35 35 -91 60 -136 60 -20 0
-20 -2 3 110 13 63 3 135 -23 174 -39 60 -140 73 -205 26 -18 -12 -35 -20 -38
-16 -3 3 -5 63 -4 134 l2 128 -38 74 c-46 91 -155 206 -227 239 -61 28 -147
43 -206 35 -112 -14 -254 -81 -363 -169 -37 -30 -71 -55 -76 -55 -5 0 -12 24
-16 53 -12 89 -60 201 -160 375 -120 209 -149 295 -143 416 4 69 10 95 40 157
62 129 142 206 239 229 77 19 85 10 50 -52 -53 -96 -75 -189 -75 -318 1 -168
40 -300 129 -434 60 -91 77 -87 133 32 65 138 86 222 85 332 0 101 -5 117 -87
310 -56 134 -50 145 64 106 88 -31 162 -71 253 -139 75 -55 82 -76 28 -91 -19
-6 -54 -28 -77 -50 -71 -69 -80 -154 -28 -257 66 -131 193 -195 325 -165 l36
8 5 -44 c8 -69 36 -117 87 -150 94 -59 174 -58 225 2 27 33 49 118 44 177 -3
37 -2 38 32 41 106 7 156 40 196 127 61 130 4 211 -170 240 -42 7 -43 9 -11
95 23 62 13 122 -29 167 -44 49 -102 55 -169 19 -27 -15 -52 -24 -57 -21 -5 3
-11 18 -15 35 -9 40 -59 107 -98 130 -72 45 -163 14 -199 -67 -17 -39 -19 -58
-14 -115 4 -40 2 -68 -3 -68 -12 0 -165 109 -169 120 -2 4 20 24 47 43 91 66
207 175 285 268 125 148 142 207 73 249 -41 26 -66 24 -153 -9z m-205 -417
c-45 -48 -117 -82 -94 -44 8 13 96 70 109 70 5 0 -1 -12 -15 -26z m296 -104
c8 -13 -20 -24 -42 -16 -15 6 -15 8 -3 16 20 13 37 12 45 0z m-60 -38 c0 -18
-20 -15 -23 4 -3 10 1 15 10 12 7 -3 13 -10 13 -16z m376 -105 c-13 -13 -26
-3 -16 12 3 6 11 8 17 5 6 -4 6 -10 -1 -17z m-31 -47 c0 -5 -7 -10 -16 -10 -8
0 -12 5 -9 10 3 6 10 10 16 10 5 0 9 -4 9 -10z m-425 -40 c-3 -5 -10 -10 -16
-10 -5 0 -9 5 -9 10 0 6 7 10 16 10 8 0 12 -4 9 -10z m293 -191 c3 -19 -29
-31 -49 -19 -10 7 -10 11 1 25 16 19 44 16 48 -6z m76 -28 c3 -4 3 -11 0 -14
-8 -8 -34 3 -34 14 0 11 27 12 34 0z m206 -69 c0 -13 -12 -22 -22 -16 -10 6
-1 24 13 24 5 0 9 -4 9 -8z m-220 -22 c0 -5 -9 -10 -21 -10 -11 0 -17 5 -14
10 3 6 13 10 21 10 8 0 14 -4 14 -10z m-240 -60 c0 -5 -4 -10 -10 -10 -5 0
-10 5 -10 10 0 6 5 10 10 10 6 0 10 -4 10 -10z m260 -120 c13 -24 1 -60 -20
-60 -23 0 -45 57 -29 76 13 15 36 8 49 -16z m-1215 -330 c3 -5 1 -10 -4 -10
-6 0 -11 5 -11 10 0 6 2 10 4 10 3 0 8 -4 11 -10z m-605 -194 c0 -3 -4 -8 -10
-11 -5 -3 -10 -1 -10 4 0 6 5 11 10 11 6 0 10 -2 10 -4z m1440 -440 c0 -2 -7
-6 -15 -10 -8 -3 -15 -1 -15 4 0 6 7 10 15 10 8 0 15 -2 15 -4z m370 -81 c-7
-8 -16 -15 -21 -15 -14 0 -11 38 4 43 20 7 31 -11 17 -28z m-306 -98 c10 -28
2 -47 -13 -31 -5 5 -13 22 -17 38 -9 37 17 32 30 -7z m226 14 c0 -6 -4 -13
-10 -16 -5 -3 -10 1 -10 9 0 9 5 16 10 16 6 0 10 -4 10 -9z m-55 -161 c3 -5
-1 -10 -10 -10 -9 0 -13 5 -10 10 3 6 8 10 10 10 2 0 7 -4 10 -10z m153 -47
c2 -18 -3 -35 -12 -43 -14 -11 -16 -7 -16 35 0 53 23 60 28 8z m172 -6 c0 -8
-3 -17 -7 -20 -9 -9 -34 13 -27 24 8 14 34 11 34 -4z m-290 -33 c0 -8 -5 -12
-10 -9 -6 4 -8 11 -5 16 9 14 15 11 15 -7z m-160 -98 c0 -7 -3 -16 -7 -19 -10
-11 -33 13 -33 35 0 16 3 17 20 8 11 -6 20 -17 20 -24z m-201 -502 c57 -12 32
-21 -71 -27 -57 -3 -113 -9 -125 -13 -14 -4 -23 -2 -23 5 0 26 144 50 219 35z
m-549 -374 c0 -5 -4 -10 -10 -10 -5 0 -10 5 -10 10 0 6 5 10 10 10 6 0 10 -4
10 -10z m428 -28 c2 -7 -3 -12 -12 -12 -9 0 -16 7 -16 16 0 17 22 14 28 -4z
m-68 -52 c0 -12 -28 -25 -36 -17 -9 9 6 27 22 27 8 0 14 -5 14 -10z m-146
-191 c32 -15 39 -34 19 -50 -13 -11 -19 -9 -39 16 -12 16 -21 32 -18 37 7 10
8 10 38 -3z m286 -127 c0 -5 -9 -17 -19 -26 -22 -20 -40 -4 -21 19 13 16 40
20 40 7z m-255 -12 c-3 -5 -18 -10 -33 -10 -21 0 -24 2 -12 10 20 13 53 13 45
0z m-505 -962 c0 -41 -35 -118 -53 -118 -23 0 -37 23 -37 61 0 45 32 89 66 89
20 0 24 -5 24 -32z m-920 -459 c0 -5 -4 -9 -10 -9 -5 0 -10 7 -10 16 0 8 5 12
10 9 6 -3 10 -10 10 -16z m900 -37 c0 -28 -3 -33 -10 -22 -13 20 -13 73 0 65
6 -3 10 -23 10 -43z m-709 -8 c99 -40 118 -64 50 -64 -49 0 -194 45 -211 65
-10 12 -8 17 11 25 31 12 72 5 150 -26z m505 -71 c-10 -10 -19 5 -10 18 6 11
8 11 12 0 2 -7 1 -15 -2 -18z m-656 -39 c18 -21 -3 -17 -40 9 -46 30 -51 53
-7 27 20 -12 41 -28 47 -36z m1238 16 c48 -22 53 -37 17 -46 -28 -7 -85 28
-85 52 0 19 16 17 68 -6z m422 -126 c0 -9 -5 -14 -12 -12 -18 6 -21 28 -4 28
9 0 16 -7 16 -16z m78 -16 c-6 -18 -28 -21 -28 -4 0 9 7 16 16 16 9 0 14 -5
12 -12z m298 -75 c-10 -10 -19 5 -10 18 6 11 8 11 12 0 2 -7 1 -15 -2 -18z
m-1611 -53 c9 -14 -61 -80 -85 -80 -45 0 -29 53 23 75 39 17 54 18 62 5z
m1405 -55 c0 -8 -7 -15 -15 -15 -8 0 -15 7 -15 15 0 8 7 15 15 15 8 0 15 -7
15 -15z m-122 -22 c2 -8 -5 -13 -17 -13 -12 0 -21 6 -21 16 0 18 31 15 38 -3z
m162 -8 c0 -8 -7 -15 -15 -15 -8 0 -15 7 -15 15 0 8 7 15 15 15 8 0 15 -7 15
-15z m-1630 -30 c0 -8 -7 -15 -15 -15 -8 0 -15 7 -15 15 0 8 7 15 15 15 8 0
15 -7 15 -15z m650 -15 c0 -28 -37 -122 -52 -131 -18 -12 -48 9 -48 34 0 38
71 134 91 122 5 -4 9 -15 9 -25z m532 -105 c0 -5 -5 -11 -11 -13 -6 -2 -11 4
-11 13 0 9 5 15 11 13 6 -2 11 -8 11 -13z m88 -5 c0 -5 -4 -10 -9 -10 -6 0
-13 5 -16 10 -3 6 1 10 9 10 9 0 16 -4 16 -10z m300 -171 c0 -5 -7 -9 -15 -9
-15 0 -20 12 -9 23 8 8 24 -1 24 -14z m330 -1149 c0 -5 -4 -10 -10 -10 -5 0
-10 5 -10 10 0 6 5 10 10 10 6 0 10 -4 10 -10z m5583 -229 c2 -10 0 -26 -5
-35 -8 -14 -13 -15 -24 -5 -15 12 -19 41 -7 52 12 13 31 7 36 -12z m-53 -101
c0 -5 -2 -10 -4 -10 -3 0 -8 5 -11 10 -3 6 -1 10 4 10 6 0 11 -4 11 -10z m590
-50 c0 -5 -4 -10 -10 -10 -5 0 -10 5 -10 10 0 6 5 10 10 10 6 0 10 -4 10 -10z
m-350 -100 c0 -5 -7 -10 -15 -10 -8 0 -15 5 -15 10 0 6 7 10 15 10 8 0 15 -4
15 -10z m10 -65 c0 -8 -7 -15 -15 -15 -16 0 -20 12 -8 23 11 12 23 8 23 -8z
m-28 -76 c-4 -37 -11 -51 -22 -44 -11 7 -14 58 -3 69 13 13 28 -1 25 -25z
m-1562 -49 c0 -5 -4 -10 -10 -10 -5 0 -10 5 -10 10 0 6 5 10 10 10 6 0 10 -4
10 -10z m2071 0 c30 -17 23 -38 -16 -46 -41 -7 -85 2 -85 18 0 31 63 48 101
28z m-2039 -35 c0 -5 -5 -11 -11 -13 -6 -2 -11 4 -11 13 0 9 5 15 11 13 6 -2
11 -8 11 -13z m368 -119 c0 -16 -24 -38 -33 -30 -8 9 11 44 23 44 6 0 10 -6
10 -14z m-40 -80 c-13 -13 -35 7 -25 24 5 8 11 8 21 -1 10 -8 12 -15 4 -23z
m-5366 18 c28 -11 18 -27 -11 -19 -37 9 -53 25 -26 25 12 0 28 -3 37 -6z
m6786 -23 c0 -12 -20 -25 -27 -18 -7 7 6 27 18 27 5 0 9 -4 9 -9z m-380 -21
c0 -5 -5 -10 -11 -10 -5 0 -7 5 -4 10 3 6 8 10 11 10 2 0 4 -4 4 -10z m-1465
-60 c0 -7 -6 -15 -12 -17 -8 -3 -13 4 -13 17 0 13 5 20 13 18 6 -3 12 -11 12
-18z m-3821 -6 c23 -9 20 -34 -3 -34 -22 0 -35 15 -26 30 7 12 8 12 29 4z
m-1039 -34 c3 -5 1 -10 -4 -10 -6 0 -11 5 -11 10 0 6 2 10 4 10 3 0 8 -4 11
-10z m5005 -6 c0 -8 -4 -12 -10 -9 -5 3 -10 10 -10 16 0 5 5 9 10 9 6 0 10 -7
10 -16z m494 -26 c3 -17 2 -36 -3 -41 -16 -16 -31 3 -31 39 0 44 25 46 34 2z
m-5912 -5 c18 -16 25 -43 11 -43 -13 0 -53 47 -46 54 9 9 15 8 35 -11z m5856
-10 c2 -9 -8 -13 -32 -13 -34 0 -44 8 -29 24 11 11 56 2 61 -11z m-5669 -64
c17 -6 31 -15 31 -20 0 -16 -37 -10 -61 11 -27 22 -17 25 30 9z m5128 -48
c-16 -79 -54 -128 -79 -103 -22 22 35 132 69 132 12 0 14 -7 10 -29z m-4057
-42 c0 -5 -7 -9 -15 -9 -15 0 -20 12 -9 23 8 8 24 -1 24 -14z m4304 4 c12 -44
17 -123 8 -139 -9 -16 -10 -16 -20 2 -14 27 -25 108 -17 133 8 26 22 27 29 4z
m-2889 -22 c7 -12 -12 -24 -25 -16 -11 7 -4 25 10 25 5 0 11 -4 15 -9z m-2083
-28 c33 -31 37 -63 9 -63 -23 0 -61 45 -61 71 0 27 19 24 52 -8z m651 5 c10
-31 -37 -101 -55 -82 -11 11 26 94 42 94 4 0 10 -6 13 -12z m-1290 -86 c-12
-184 57 -292 187 -292 95 0 161 56 199 168 9 26 21 49 26 51 19 7 39 -54 40
-120 0 -56 -4 -73 -30 -115 -17 -27 -56 -69 -87 -94 -59 -48 -314 -190 -340
-190 -12 0 -17 17 -22 71 -6 71 -31 134 -61 159 -33 27 -36 47 -19 107 21 71
14 146 -21 239 -14 37 -23 70 -19 73 6 7 98 28 131 30 21 1 22 -1 16 -87z
m187 79 c0 -14 -18 -23 -30 -16 -6 4 -8 11 -5 16 8 12 35 12 35 0z m20 -102
c0 -16 -4 -29 -10 -29 -12 0 -24 45 -15 60 11 18 25 1 25 -31z m1270 0 c0 -5
-7 -9 -15 -9 -15 0 -20 12 -9 23 8 8 24 -1 24 -14z m3810 11 c0 -5 -4 -10 -9
-10 -6 0 -13 5 -16 10 -3 6 1 10 9 10 9 0 16 -4 16 -10z m-2542 -22 c-6 -18
-28 -21 -28 -4 0 9 7 16 16 16 9 0 14 -5 12 -12z m-924 -23 c20 -20 11 -42
-26 -61 -36 -19 -52 -10 -43 25 13 50 40 65 69 36z m3814 -16 c-2 -6 -8 -10
-13 -10 -5 0 -11 4 -13 10 -2 6 4 11 13 11 9 0 15 -5 13 -11z m-5428 -43 c0
-3 -4 -8 -10 -11 -5 -3 -10 -1 -10 4 0 6 5 11 10 11 6 0 10 -2 10 -4z m2240
-41 c0 -8 -9 -15 -20 -15 -11 0 -20 7 -20 15 0 8 9 15 20 15 11 0 20 -7 20
-15z m400 0 c0 -8 -4 -15 -9 -15 -13 0 -22 16 -14 24 11 11 23 6 23 -9z
m-1675 -125 c3 -5 -1 -10 -10 -10 -9 0 -13 5 -10 10 3 6 8 10 10 10 2 0 7 -4
10 -10z m1355 -55 c0 -4 -11 -9 -25 -11 -16 -2 -25 2 -25 12 0 10 8 14 25 11
14 -2 25 -7 25 -12z m-1100 -46 c0 -23 -22 -49 -40 -49 -25 0 -25 15 0 40 22
22 40 26 40 9z m3040 -8 c12 -24 13 -81 0 -101 -11 -17 -15 -8 -23 50 -3 19
-8 43 -12 53 -10 24 21 23 35 -2z m-3779 -274 c17 -34 27 -57 21 -52 -24 25
-72 99 -72 112 0 26 20 2 51 -60z m3420 21 c-5 -15 -15 -29 -21 -33 -21 -13
-24 5 -6 42 20 42 43 34 27 -9z m227 -50 c18 -18 14 -28 -11 -28 -29 0 -37 7
-30 26 6 17 25 18 41 2z m112 -21 c-1 -21 -1 -21 -15 -3 -8 10 -12 23 -9 28 9
14 24 -2 24 -25z m-379 -10 c-1 -4 -1 -14 -1 -22 0 -8 -4 -15 -10 -15 -5 0
-10 12 -10 26 0 14 5 24 11 22 6 -2 10 -7 10 -11z m-3293 -72 c-3 -4 -16 9
-28 27 l-23 33 28 -27 c16 -15 26 -30 23 -33z m3720 -58 c2 -10 -3 -17 -12
-17 -10 0 -16 9 -16 21 0 24 23 21 28 -4z m-4130 -600 c61 1 112 -2 112 -5 0
-3 -37 -44 -83 -91 -45 -47 -110 -128 -145 -179 -35 -51 -67 -90 -72 -87 -4 3
-2 29 6 58 21 73 21 202 0 251 -26 62 -23 69 27 60 23 -4 93 -7 155 -7z"/>
<path d="M11608 3494 c-47 -31 -71 -88 -77 -189 l-6 -90 -56 3 c-85 5 -132
-25 -180 -118 -18 -35 -23 -61 -23 -115 0 -79 15 -118 71 -177 l36 -36 -41
-49 c-74 -87 -90 -163 -49 -224 33 -49 61 -61 138 -56 48 3 83 13 132 37 70
34 87 33 87 -6 0 -52 39 -138 81 -178 40 -38 41 -38 108 -34 114 6 166 63 178
193 3 37 11 65 17 65 18 0 163 -138 258 -245 237 -267 348 -519 274 -620 -15
-21 -13 -23 -111 55 -163 130 -521 236 -831 247 -187 7 -281 -8 -357 -57 -74
-47 -93 -93 -73 -176 l8 -31 -54 -6 c-29 -4 -83 -14 -120 -24 -37 -9 -70 -14
-74 -10 -4 4 15 65 44 135 79 195 88 252 55 348 -22 66 -125 168 -211 209 -77
36 -87 31 -122 -51 -22 -52 -25 -74 -24 -174 0 -102 4 -125 32 -207 17 -50 54
-138 82 -194 28 -55 49 -107 47 -114 -8 -18 -141 -65 -207 -72 -72 -7 -144 9
-230 52 -74 38 -150 90 -150 105 0 5 17 14 38 20 83 22 152 93 152 157 0 104
-89 193 -212 211 -45 7 -53 11 -50 27 1 11 5 41 8 66 17 124 -77 214 -216 207
-76 -4 -117 -27 -156 -90 -24 -38 -26 -39 -47 -23 -84 61 -160 68 -223 20
-104 -80 -132 -196 -68 -290 31 -46 30 -61 -2 -69 -45 -12 -74 -50 -74 -99 0
-95 110 -241 216 -288 46 -21 116 -23 156 -5 14 6 22 -4 46 -57 16 -35 46 -82
66 -104 20 -22 36 -43 36 -46 0 -4 -22 -40 -49 -82 -56 -85 -82 -157 -144
-405 -83 -327 -159 -455 -291 -491 -46 -13 -133 -7 -167 11 -22 12 -21 14 45
72 121 109 201 235 232 365 33 139 -10 372 -69 373 -17 0 -131 -118 -178 -184
-79 -111 -140 -296 -155 -469 -8 -86 -20 -102 -55 -71 -30 27 -44 58 -64 144
-21 87 -48 151 -76 176 -28 25 -24 32 24 44 107 29 143 136 79 233 -21 31 -79
77 -98 77 -23 0 -24 17 -4 61 39 86 15 160 -64 198 -73 36 -167 20 -203 -35
-8 -13 -20 -24 -25 -24 -5 0 -32 25 -60 55 -56 62 -98 79 -154 63 -40 -11
-118 -77 -140 -119 -27 -53 -14 -143 28 -201 11 -15 8 -22 -19 -50 -43 -45
-73 -113 -73 -171 0 -56 18 -88 66 -118 35 -21 70 -22 193 -7 20 3 25 -3 35
-43 27 -105 90 -164 165 -156 57 6 118 50 148 107 13 25 28 46 32 48 5 2 20
-11 34 -27 27 -33 72 -199 57 -215 -14 -14 -132 -35 -301 -51 -190 -19 -268
-34 -390 -75 -207 -69 -209 -78 -49 -185 150 -99 214 -120 349 -112 227 13
418 112 466 243 10 27 21 52 25 57 3 4 44 -10 91 -32 198 -93 335 -73 457 65
l50 57 17 -29 c96 -158 189 -258 280 -300 69 -33 109 -31 146 5 38 39 37 64
-8 151 -73 142 -235 280 -328 280 -47 0 -56 15 -39 64 9 22 40 135 69 249 60
230 74 268 134 356 45 65 65 81 106 81 31 0 93 30 116 56 40 45 53 88 52 167
0 42 4 77 9 77 5 0 30 -14 54 -31 25 -17 83 -49 130 -70 l84 -39 -14 -32 c-98
-224 -126 -315 -126 -415 0 -111 52 -173 144 -173 71 0 146 95 181 231 24 90
17 255 -13 323 -12 26 -19 52 -17 57 3 4 22 11 43 15 20 3 107 33 192 66 85
33 191 67 235 75 79 13 149 10 161 -8 15 -26 122 -93 190 -120 127 -51 201
-63 384 -63 157 1 251 13 389 50 18 5 23 3 19 -7 -2 -8 -67 -47 -144 -88 -193
-101 -290 -169 -371 -254 -67 -73 -70 -74 -146 -91 -141 -32 -248 -85 -327
-165 -68 -67 -100 -142 -100 -230 0 -80 18 -96 99 -88 122 13 239 78 319 177
25 30 49 56 53 58 5 2 24 -29 42 -70 127 -276 499 -516 867 -558 86 -10 217
-4 225 11 3 4 1 17 -3 29 -8 22 -14 23 -148 25 -150 2 -232 20 -391 86 -171
72 -386 248 -460 379 -106 186 -72 342 102 470 89 65 141 92 152 78 5 -7 29
-60 53 -117 60 -143 117 -225 266 -380 124 -128 130 -133 160 -127 25 6 33 14
38 38 10 50 6 158 -8 238 -40 219 -144 362 -303 414 -29 10 -53 21 -53 26 0 5
48 34 108 66 193 103 291 177 328 246 19 36 18 151 -2 219 -42 145 -180 345
-372 541 -68 70 -121 131 -118 136 3 5 22 13 43 17 121 22 209 129 188 225 -9
43 -58 96 -100 110 -19 6 -35 16 -35 22 0 6 20 28 45 50 60 53 85 103 85 170
-1 117 -60 178 -173 178 -56 0 -76 -6 -146 -41 -44 -22 -85 -37 -91 -34 -5 3
-10 24 -10 46 0 49 -23 105 -58 142 -67 71 -215 109 -274 71z m94 -149 c1 -5
13 -18 29 -27 15 -9 33 -26 39 -37 15 -29 2 -71 -21 -71 -24 0 -59 55 -59 92
0 15 -4 30 -10 33 -5 3 -10 11 -10 16 0 13 31 7 32 -6z m-232 -210 c0 -8 -7
-15 -15 -15 -8 0 -15 7 -15 15 0 8 7 15 15 15 8 0 15 -7 15 -15z m757 -59 c-2
-6 -25 -12 -51 -14 -36 -2 -47 0 -44 10 5 14 63 27 86 20 7 -3 11 -10 9 -16z
m-767 -6 c0 -5 -4 -10 -10 -10 -5 0 -10 5 -10 10 0 6 5 10 10 10 6 0 10 -4 10
-10z m10 -85 c0 -8 -6 -15 -14 -15 -17 0 -28 14 -19 24 12 12 33 6 33 -9z
m680 -275 c0 -5 -5 -10 -11 -10 -5 0 -7 5 -4 10 3 6 8 10 11 10 2 0 4 -4 4
-10z m-310 -349 c0 -14 -18 -23 -30 -16 -6 4 -8 11 -5 16 8 12 35 12 35 0z
m-2160 -157 c0 -17 -22 -14 -28 4 -2 7 3 12 12 12 9 0 16 -7 16 -16z m361 -13
c20 -16 22 -23 13 -38 -14 -23 -41 -28 -59 -13 -18 15 -19 42 -3 58 16 16 22
15 49 -7z m-366 -31 c11 -18 -6 -50 -25 -50 -28 0 -34 19 -14 41 19 21 30 24
39 9z m-70 -160 c-5 -8 -11 -8 -17 -2 -6 6 -7 16 -3 22 5 8 11 8 17 2 6 -6 7
-16 3 -22z m669 -76 c24 -9 19 -33 -9 -40 -50 -12 -89 -10 -93 7 -5 27 62 48
102 33z m-234 -354 c0 -51 -54 -68 -71 -22 -6 17 -4 27 10 41 28 28 61 17 61
-19z m-1525 -271 c4 -6 -2 -13 -12 -15 -14 -4 -19 -12 -16 -28 5 -22 -18 -56
-38 -56 -16 0 -10 36 11 63 11 14 20 30 20 36 0 14 27 14 35 0z m290 -9 c3 -5
1 -10 -4 -10 -6 0 -11 5 -11 10 0 6 2 10 4 10 3 0 8 -4 11 -10z m-363 -117
c18 -16 25 -43 10 -43 -10 0 -42 38 -42 50 0 15 11 12 32 -7z m248 -152 c0 -6
-5 -13 -10 -16 -15 -9 -43 3 -35 15 8 13 45 13 45 1z m-290 -21 c0 -5 -4 -10
-10 -10 -5 0 -10 5 -10 10 0 6 5 10 10 10 6 0 10 -4 10 -10z m468 -58 c2 -7
-3 -12 -12 -12 -9 0 -16 7 -16 16 0 17 22 14 28 -4z m82 4 c0 -21 -15 -28 -45
-20 -39 10 -32 34 10 34 24 0 35 -5 35 -14z m56 3 c3 -6 2 -15 -2 -19 -12 -12
-38 5 -30 19 9 14 23 14 32 0z m-576 -105 c0 -16 -16 -19 -25 -4 -8 13 4 32
16 25 5 -4 9 -13 9 -21z m210 -39 c0 -8 -4 -15 -10 -15 -5 0 -10 7 -10 15 0 8
5 15 10 15 6 0 10 -7 10 -15z m74 -25 c28 -10 35 -37 12 -46 -22 -8 -56 14
-56 36 0 23 8 24 44 10z m56 -60 c0 -5 -2 -10 -4 -10 -3 0 -8 5 -11 10 -3 6
-1 10 4 10 6 0 11 -4 11 -10z m-60 -35 c0 -8 -7 -15 -15 -15 -16 0 -20 12 -8
23 11 12 23 8 23 -8z m-80 -364 c0 -14 -27 -21 -77 -21 -55 0 -52 7 8 19 61
12 69 12 69 2z"/>
</g>
</svg>
