<?xml version="1.0" standalone="no"?>
<!DOCTYPE svg PUBLIC "-//W3C//DTD SVG 20010904//EN"
 "http://www.w3.org/TR/2001/REC-SVG-20010904/DTD/svg10.dtd">
<svg version="1.0" xmlns="http://www.w3.org/2000/svg"
 width="1280.000000pt" height="1246.000000pt" viewBox="0 0 1280.000000 1246.000000"
 preserveAspectRatio="xMidYMid meet">
<metadata>
Created by potrace 1.15, written by Peter Selinger 2001-2017
</metadata>
<g transform="translate(0.000000,1246.000000) scale(0.100000,-0.100000)"
fill="#000000" stroke="none">
<path d="M6865 12417 c-323 -131 -546 -381 -649 -724 -40 -135 -51 -218 -50
-398 1 -195 26 -352 90 -560 93 -305 324 -778 592 -1215 213 -347 528 -787
804 -1122 48 -59 88 -109 88 -112 0 -3 -51 27 -112 66 -152 96 -431 234 -608
301 -584 222 -1222 284 -1780 171 -314 -63 -611 -203 -833 -391 -108 -91 -119
-98 -234 -136 -325 -107 -559 -91 -628 44 -26 50 -19 71 58 161 139 167 172
239 171 383 0 111 -18 173 -75 258 -76 115 -242 181 -395 157 -191 -31 -358
-183 -426 -390 -47 -144 -31 -465 32 -629 41 -107 132 -244 206 -309 74 -67
209 -135 310 -158 138 -30 333 -8 481 55 40 17 74 31 77 31 2 0 -11 -38 -30
-85 -128 -318 -156 -672 -83 -1039 59 -293 216 -614 407 -830 222 -250 500
-421 769 -472 120 -22 327 -15 433 15 297 86 510 296 511 506 1 51 -5 74 -34
133 -94 190 -239 329 -441 422 -125 58 -209 75 -366 75 -159 0 -216 -14 -309
-76 -73 -49 -98 -88 -147 -232 -40 -115 -68 -157 -107 -157 -74 0 -256 221
-344 418 -110 245 -167 570 -144 811 44 470 279 840 688 1085 387 231 961 315
1548 226 1056 -162 1999 -887 2667 -2050 159 -277 243 -443 222 -436 -42 13
-214 46 -294 56 -258 32 -627 -9 -958 -105 -127 -37 -345 -114 -324 -114 7 -1
56 7 110 16 140 24 570 25 697 0 245 -46 426 -124 543 -232 128 -119 199 -237
271 -456 58 -177 111 -254 225 -331 68 -47 157 -78 221 -78 l44 0 61 -186
c169 -518 304 -1042 419 -1627 28 -142 51 -262 51 -268 0 -5 -42 73 -93 173
-139 273 -266 473 -440 691 -105 133 -394 422 -526 526 -422 334 -890 539
-1406 616 -415 62 -981 35 -1378 -66 -486 -123 -1039 -507 -1611 -1119 -329
-352 -562 -636 -978 -1195 -527 -707 -603 -802 -852 -1050 -298 -297 -560
-492 -861 -640 -173 -85 -305 -133 -466 -169 -563 -124 -1064 17 -1329 375
-167 224 -219 554 -134 847 78 268 251 524 468 692 109 83 295 182 388 205
l28 7 -16 -43 c-9 -25 -16 -75 -15 -114 0 -184 153 -296 386 -282 73 4 116 14
225 52 272 94 350 177 338 358 -8 101 -39 176 -103 246 -58 61 -144 111 -225
130 -117 27 -269 8 -477 -59 -599 -194 -1068 -687 -1190 -1250 -24 -115 -24
-341 1 -460 55 -256 170 -451 367 -619 204 -173 439 -266 734 -292 676 -57
1344 246 1997 907 246 250 340 364 673 819 446 608 657 881 900 1165 110 129
368 409 373 405 1 -1 -7 -38 -20 -81 -64 -228 2 -471 176 -648 104 -106 183
-158 320 -214 154 -61 243 -83 352 -83 114 -1 189 14 279 55 82 39 145 89 199
160 52 69 75 125 88 216 18 126 -24 244 -119 335 -76 73 -208 125 -316 125
-61 0 -206 -44 -295 -90 -42 -22 -87 -40 -100 -40 -95 0 -150 127 -118 277 30
147 128 325 279 513 135 166 206 230 322 288 243 122 417 168 820 219 171 21
598 24 750 5 632 -80 1132 -308 1600 -729 477 -430 837 -1037 1070 -1805 36
-120 115 -438 109 -438 -3 0 -37 27 -77 61 -167 141 -370 251 -732 399 -451
184 -630 277 -811 421 -34 27 -65 49 -68 49 -3 0 -6 -33 -6 -72 0 -120 48
-286 131 -452 161 -323 393 -617 654 -831 179 -146 245 -187 554 -349 228
-119 325 -182 420 -273 l64 -61 -6 -346 -5 -346 52 0 c29 0 81 -3 115 -6 l61
-7 0 67 c0 64 1 66 25 66 23 0 25 3 25 48 0 75 -18 308 -55 717 -74 819 -85
1108 -52 1351 65 473 290 834 629 1010 204 105 452 126 658 56 116 -40 194
-79 245 -124 78 -68 73 -98 -26 -163 -79 -52 -120 -107 -139 -186 -33 -135 40
-235 237 -326 208 -96 377 -31 428 164 20 77 19 145 -5 236 -35 139 -100 220
-265 333 -152 104 -296 168 -481 215 -395 99 -770 -5 -1059 -295 -98 -99 -178
-212 -248 -350 -51 -101 -42 -111 -77 89 -121 700 -329 1485 -541 2043 -22 57
-39 105 -37 106 2 1 25 12 51 24 67 31 142 104 174 170 35 72 44 205 19 302
-29 115 -67 176 -206 330 -296 328 -362 505 -289 779 85 320 398 563 829 646
l75 14 -150 -4 c-476 -12 -855 -239 -1057 -631 -25 -49 -58 -129 -73 -177
l-28 -89 -20 34 c-205 340 -412 636 -615 878 -118 141 -330 367 -417 446 -122
110 -558 615 -841 975 -294 374 -550 748 -765 1119 -131 227 -380 743 -365
757 3 3 18 -4 34 -16 66 -47 124 -64 212 -65 73 -1 92 3 135 25 145 77 249
278 217 420 -16 69 -39 99 -135 171 -125 95 -173 138 -227 204 -96 118 -130
214 -130 370 0 273 152 524 411 677 78 46 60 47 -46 4z"/>
</g>
</svg>
